# xmcd
#
# Track frame offsets: 
#        150
#        29734
#        60207
#        81399
#        100363
#        125126
#        149655
#        156152
#        176651
#        205818
#        243480
#        269994
#
# Disc length: 3709 seconds
#
# Revision: 2
# Processed by: cddbd v1.5.2PL0 Copyright (c) Steve Scherf et al.
# Submitted via: ExactAudioCopy v1.3
#
DISCID=bd0e7b0c
DTITLE=Josh Smith - Over Your Head
DYEAR=2015
DGENRE=Blues Rock
TTITLE0=How Long
TTITLE1=Over Your Head (with Joe Bonamassa)
TTITLE2=When I Get Mine
TTITLE3=Still Searching
TTITLE4=First Hand Look (At Down and Out)
TTITLE5=And What (with Kirk Fletcher)
TTITLE6=Intro to Smoke and Mirrors
TTITLE7=Smoke and Mirrors
TTITLE8=Pusher
TTITLE9=Better Off
TTITLE10=You'll Find Love (with Charlie Musselwhite)
TTITLE11=How Long (Reprise)
EXTD=
EXTT0=
EXTT1=
EXTT2=
EXTT3=
EXTT4=
EXTT5=
EXTT6=
EXTT7=
EXTT8=
EXTT9=
EXTT10=
EXTT11=
PLAYORDER=
